<svg width="211" height="37" viewBox="0 0 211 37" fill="none" xmlns="http://www.w3.org/2000/svg">
<circle cx="46.5" cy="18.5" r="18.5" fill="#004562"/>
<circle cx="18.5" cy="18.5" r="18.5" fill="#45B6E2" fill-opacity="0.76"/>
<path d="M23.88 12.14V14.8H19.7V26H16.58V14.8H12.4V12.14H23.88Z" fill="white"/>
<path d="M51.88 12.14V14.8H47.7V26H44.58V14.8H40.4V12.14H51.88Z" fill="white"/>
<path d="M82.256 11.368V14.56H77.24V28H73.496V14.56H68.48V11.368H82.256ZM87.2437 19.672C87.2437 20.488 87.3397 21.224 87.5317 21.88C87.7397 22.536 88.0277 23.104 88.3957 23.584C88.7797 24.048 89.2437 24.408 89.7877 24.664C90.3317 24.92 90.9557 25.048 91.6597 25.048C92.3477 25.048 92.9637 24.92 93.5077 24.664C94.0677 24.408 94.5317 24.048 94.8997 23.584C95.2837 23.104 95.5717 22.536 95.7637 21.88C95.9717 21.224 96.0757 20.488 96.0757 19.672C96.0757 18.856 95.9717 18.12 95.7637 17.464C95.5717 16.792 95.2837 16.224 94.8997 15.76C94.5317 15.28 94.0677 14.912 93.5077 14.656C92.9637 14.4 92.3477 14.272 91.6597 14.272C90.9557 14.272 90.3317 14.408 89.7877 14.68C89.2437 14.936 88.7797 15.304 88.3957 15.784C88.0277 16.248 87.7397 16.816 87.5317 17.488C87.3397 18.144 87.2437 18.872 87.2437 19.672ZM99.9397 19.672C99.9397 21.096 99.7237 22.352 99.2917 23.44C98.8757 24.512 98.2997 25.416 97.5637 26.152C96.8277 26.872 95.9477 27.416 94.9237 27.784C93.9157 28.152 92.8277 28.336 91.6597 28.336C90.5237 28.336 89.4517 28.152 88.4437 27.784C87.4357 27.416 86.5557 26.872 85.8037 26.152C85.0517 25.416 84.4597 24.512 84.0277 23.44C83.5957 22.352 83.3797 21.096 83.3797 19.672C83.3797 18.248 83.6037 17 84.0517 15.928C84.4997 14.84 85.0997 13.928 85.8517 13.192C86.6197 12.456 87.4997 11.904 88.4917 11.536C89.4997 11.168 90.5557 10.984 91.6597 10.984C92.7957 10.984 93.8677 11.168 94.8757 11.536C95.8837 11.904 96.7637 12.456 97.5157 13.192C98.2677 13.928 98.8597 14.84 99.2917 15.928C99.7237 17 99.9397 18.248 99.9397 19.672ZM111.173 14.248C109.429 14.248 108.165 14.736 107.381 15.712C106.613 16.672 106.229 17.992 106.229 19.672C106.229 20.488 106.325 21.232 106.517 21.904C106.709 22.56 106.997 23.128 107.381 23.608C107.765 24.088 108.245 24.464 108.821 24.736C109.397 24.992 110.069 25.12 110.837 25.12C111.253 25.12 111.605 25.112 111.893 25.096C112.197 25.08 112.461 25.048 112.685 25V19.216H116.429V27.448C115.981 27.624 115.261 27.808 114.269 28C113.277 28.208 112.053 28.312 110.597 28.312C109.349 28.312 108.213 28.12 107.189 27.736C106.181 27.352 105.317 26.792 104.597 26.056C103.877 25.32 103.317 24.416 102.917 23.344C102.533 22.272 102.341 21.048 102.341 19.672C102.341 18.28 102.557 17.048 102.989 15.976C103.421 14.904 104.013 14 104.765 13.264C105.517 12.512 106.397 11.944 107.405 11.56C108.429 11.176 109.517 10.984 110.669 10.984C111.453 10.984 112.157 11.04 112.781 11.152C113.421 11.248 113.965 11.368 114.413 11.512C114.877 11.64 115.253 11.776 115.541 11.92C115.845 12.064 116.061 12.176 116.189 12.256L115.109 15.256C114.597 14.984 114.005 14.752 113.333 14.56C112.677 14.352 111.957 14.248 111.173 14.248ZM119.912 28V11.368H131.144V14.512H123.656V17.776H130.304V20.848H123.656V24.856H131.696V28H119.912ZM146.803 11.368V14.56H141.787V28H138.043V14.56H133.027V11.368H146.803ZM209.778 26.104C209.778 26.824 209.546 27.376 209.082 27.76C208.634 28.128 208.122 28.312 207.546 28.312C206.97 28.312 206.45 28.128 205.986 27.76C205.538 27.376 205.314 26.824 205.314 26.104C205.314 25.384 205.538 24.84 205.986 24.472C206.45 24.088 206.97 23.896 207.546 23.896C208.122 23.896 208.634 24.088 209.082 24.472C209.546 24.84 209.778 25.384 209.778 26.104Z" fill="#004562"/>
<path d="M160.009 11.368V12.784H154.681V28H153.049V12.784H147.721V11.368H160.009ZM162.598 28V11.368H172.198V12.784H164.23V18.568H171.334V19.96H164.23V26.584H172.822V28H162.598ZM182.424 28.36C181.352 28.36 180.352 28.168 179.424 27.784C178.512 27.4 177.712 26.84 177.024 26.104C176.352 25.368 175.816 24.464 175.416 23.392C175.032 22.304 174.84 21.064 174.84 19.672C174.84 18.28 175.048 17.048 175.464 15.976C175.896 14.888 176.464 13.976 177.168 13.24C177.872 12.504 178.688 11.952 179.616 11.584C180.544 11.2 181.512 11.008 182.52 11.008C183.144 11.008 183.712 11.048 184.224 11.128C184.736 11.208 185.184 11.312 185.568 11.44C185.952 11.552 186.28 11.672 186.552 11.8C186.824 11.912 187.032 12.016 187.176 12.112L186.648 13.528C186.248 13.288 185.736 13.056 185.112 12.832C184.504 12.592 183.744 12.472 182.832 12.472C181.792 12.472 180.88 12.648 180.096 13C179.328 13.352 178.68 13.848 178.152 14.488C177.624 15.128 177.224 15.888 176.952 16.768C176.696 17.648 176.568 18.624 176.568 19.696C176.568 20.8 176.696 21.8 176.952 22.696C177.224 23.576 177.616 24.328 178.128 24.952C178.64 25.576 179.264 26.056 180 26.392C180.752 26.728 181.608 26.896 182.568 26.896C183.624 26.896 184.504 26.8 185.208 26.608C185.928 26.4 186.472 26.192 186.84 25.984L187.296 27.376C187.184 27.456 186.992 27.552 186.72 27.664C186.448 27.76 186.104 27.864 185.688 27.976C185.272 28.088 184.792 28.176 184.248 28.24C183.704 28.32 183.096 28.36 182.424 28.36ZM200.793 11.368H202.425V28H200.793V20.008H191.769V28H190.137V11.368H191.769V18.592H200.793V11.368Z" fill="#45B6E2"/>
</svg>
